<?xml version="1.0" encoding="UTF-8"?>
<svg id="Layer_2" data-name="Layer 2" xmlns="http://www.w3.org/2000/svg" viewBox="0 0 130.28 364.14">
  <g id="Layer_8" data-name="Layer 8">
    <path d="M50.03,60.87c-6.09,2.59-14.24,6.2-23.77,10.84-10.52,5.13-14.38,7.46-17.72,5.63-1.63-.89-2.96-2.69-6.49-20.59C.68,49.8,0,46.33,0,45.65,0,23.57,65.86,7.96,82.76,3.95c20.65-4.9,33.69-5.99,39.82,1.04,2.48,2.84,3.53,7.87,5.63,17.93,2.12,10.16,3.33,16.32,0,19.8-2.41,2.52-5.66,2.03-11.88,2.5-5.59.42-13.61,1.62-23.35,5.21,14.8,28.01,22.36,53.36,26.46,71.7,7.67,34.34,7.02,61.25,6.79,67.98-.74,21.55-4.05,36.08-12.2,69.89-9.55,39.66-18.03,73.76-24.86,100.85-.47.57-2.68,3.13-6.1,3.28-3.89.17-7.77-2.85-9.04-7.5,9.17-38.02,6.83-66.51,2.79-85.84-.94-4.48-1.51-6.29-14.07-51.75-8.37-30.31-12.56-45.46-13.13-47.69-5.95-23.06-9.93-58.38.42-110.49Z" fill="#03f"/>
  </g>
</svg>