<?xml version="1.0" encoding="UTF-8"?>
<svg id="Layer_2" data-name="Layer 2" xmlns="http://www.w3.org/2000/svg" viewBox="0 0 77.3 93.01">
  <g id="Layer_7" data-name="Layer 7">
    <path d="M20.61,7.12c.2,10.16-.43,22.54-3.08,36.36C13.5,64.53,6.26,81.27,0,93.01c7.84-4.78,22.84-15.48,32.85-34.89,4.86-9.42,7.18-18.24,8.34-25.02,4.81,3.06,10.44,7.3,16,13.11,10.75,11.21,16.24,23.03,19.06,30.81,1.2-6.98,2.52-20.65-3.23-35.91C62.52,13.26,36.93,2.49,32.17.59c-.67-.26-3.34-1.19-6.3,0-4.22,1.7-5.19,6.17-5.27,6.53Z" fill="#03f"/>
  </g>
</svg>